HIERARCHY
ROOT joint_Root
{
	OFFSET 0.0 0.0 0.0
	CHANNELS 6 Xposition Yposition Zposition Zrotation Xrotation Yrotation 
	JOINT Hips
	{
		OFFSET 4.5925 91.4895 -427.239
		CHANNELS 6 Xposition Yposition Zposition Zrotation Xrotation Yrotation 
		JOINT Spine
		{
			OFFSET 15.7357 0.0 0.0
			CHANNELS 6 Xposition Yposition Zposition Zrotation Xrotation Yrotation 
			JOINT Chest
			{
				OFFSET 8.98455 -0.406207 0.0
				CHANNELS 6 Xposition Yposition Zposition Zrotation Xrotation Yrotation 
				JOINT Neck
				{
					OFFSET 16.3773 0.0 0.0
					CHANNELS 6 Xposition Yposition Zposition Zrotation Xrotation Yrotation 
					JOINT Head
					{
						OFFSET 6.45672 0.0 0.0
						CHANNELS 6 Xposition Yposition Zposition Zrotation Xrotation Yrotation 
						End Site
						{
							OFFSET 0.0 0.0 0.0
						}
					}
				}
				JOINT Shoulder_L
				{
					OFFSET 12.9942 -0.242716 4.98039
					CHANNELS 6 Xposition Yposition Zposition Zrotation Xrotation Yrotation 
					JOINT UpperArm_L
					{
						OFFSET 5.34809 0.0 0.0
						CHANNELS 6 Xposition Yposition Zposition Zrotation Xrotation Yrotation 
						JOINT LowerArm_L
						{
							OFFSET 24.3286 1.87007e-05 0.0
							CHANNELS 6 Xposition Yposition Zposition Zrotation Xrotation Yrotation 
							JOINT Hand_L
							{
								OFFSET 22.2916 0.0 0.0
								CHANNELS 6 Xposition Yposition Zposition Zrotation Xrotation Yrotation 
								End Site
								{
									OFFSET 0.0 0.0 0.0
								}
							}
						}
					}
				}
				JOINT Shoulder_R
				{
					OFFSET 12.9945 -0.242716 -4.98039
					CHANNELS 6 Xposition Yposition Zposition Zrotation Xrotation Yrotation 
					JOINT UpperArm_R
					{
						OFFSET -5.34813 0.0 0.0
						CHANNELS 6 Xposition Yposition Zposition Zrotation Xrotation Yrotation 
						JOINT LowerArm_R
						{
							OFFSET -24.3289 0.000322201 0.0
							CHANNELS 6 Xposition Yposition Zposition Zrotation Xrotation Yrotation 
							JOINT Hand_R
							{
								OFFSET -22.2915 -0.000108084 0.0
								CHANNELS 6 Xposition Yposition Zposition Zrotation Xrotation Yrotation 
								End Site
								{
									OFFSET 0.0 0.0 0.0
								}
							}
						}
					}
				}
			}
		}
		JOINT UpperLeg_L
		{
			OFFSET -2.19248 -6.46944 0.0
			CHANNELS 6 Xposition Yposition Zposition Zrotation Xrotation Yrotation 
			JOINT LowerLeg_L
			{
				OFFSET 39.0811 0.0 -1.23785e-05
				CHANNELS 6 Xposition Yposition Zposition Zrotation Xrotation Yrotation 
				JOINT Foot_L
				{
					OFFSET 40.9854 0.0 -1.26872e-05
					CHANNELS 6 Xposition Yposition Zposition Zrotation Xrotation Yrotation 
					JOINT Toes_L
					{
						OFFSET 11.7543 0.0 0.0
						CHANNELS 6 Xposition Yposition Zposition Zrotation Xrotation Yrotation 
						End Site
						{
							OFFSET 0.0 0.0 0.0
						}
					}
				}
			}
		}
		JOINT UpperLeg_R
		{
			OFFSET -2.19251 6.46944 0.0
			CHANNELS 6 Xposition Yposition Zposition Zrotation Xrotation Yrotation 
			JOINT LowerLeg_R
			{
				OFFSET -39.0811 -0.00228153 -0.0401928
				CHANNELS 6 Xposition Yposition Zposition Zrotation Xrotation Yrotation 
				JOINT Foot_R
				{
					OFFSET -40.9854 0.0 0.0
					CHANNELS 6 Xposition Yposition Zposition Zrotation Xrotation Yrotation 
					JOINT Toes_R
					{
						OFFSET -11.7543 0.0 0.0
						CHANNELS 6 Xposition Yposition Zposition Zrotation Xrotation Yrotation 
						End Site
						{
							OFFSET 0.0 0.0 0.0
						}
					}
				}
			}
		}
	}
}
MOTION
Frames:	6
Frame Time:	0.0333333
0.000000 0.000000 0.000000 0.000000 0.000000 -0.000000 1.057420 87.301500 0.911139 88.843900 -9.108670 11.079800 15.735700 0.000005 -0.000001 80.840300 81.220900 -79.513000 8.984550 -0.406207 -0.000000 9.610050 -2.757340 2.884710 16.377300 -0.000001 -0.000001 0.898498 0.761089 0.961083 6.456720 -0.000001 -0.000000 -2.172440 4.929680 -5.048700 12.994200 -0.242716 4.980390 -92.028300 6.423130 -72.434600 5.348090 -0.000007 -0.000001 -55.579200 42.409000 -16.897900 24.328600 0.000019 0.000005 7.172760 13.856400 -27.720800 22.291600 -0.000001 0.000005 10.930100 5.271730 0.851852 12.994500 -0.242716 -4.980390 87.817400 11.145500 -78.846500 -5.348130 -0.000001 -0.000004 -59.064600 6.964680 -21.961000 -24.328900 0.000322 -0.000009 -2.847880 -8.050760 -19.551200 -22.291500 -0.000108 -0.000004 11.699800 5.138790 4.207520 -2.192480 -6.469440 -0.000000 -175.429000 -11.983200 -5.629460 39.081100 -0.000007 -0.000012 -0.437614 0.423587 45.934200 40.985400 -0.000006 -0.000013 -0.402044 -1.118900 -78.983600 11.754300 -0.000000 0.000003 -0.000346 -0.002933 -16.686300 -2.192510 6.469440 -0.000001 175.775000 11.861000 173.165000 -39.081100 -0.002282 -0.040193 0.031624 -0.027569 45.812700 -40.985400 0.000008 0.000006 6.909260 9.810410 -78.631100 -11.754300 -0.000006 -0.000006 -0.003060 -0.041284 -18.252100
0.000000 0.000000 0.000000 0.000000 0.000000 -0.000000 1.016750 87.680200 1.628680 88.689800 -9.349450 11.798100 15.735700 0.000005 -0.000001 82.013200 81.682600 -81.242800 8.984550 -0.406207 -0.000000 8.728520 -2.293370 1.714560 16.377300 -0.000001 -0.000001 2.790060 1.086970 0.705914 6.456720 -0.000001 -0.000000 -1.585000 5.181900 -3.827430 12.994200 -0.242716 4.980390 -92.373800 7.163740 -71.612000 5.348090 -0.000007 -0.000001 -52.723700 44.041300 -19.027600 24.328600 0.000019 0.000005 7.930040 17.335300 -25.063100 22.291600 -0.000001 0.000005 10.889100 5.296570 0.168111 12.994500 -0.242716 -4.980390 87.914200 10.034400 -78.193000 -5.348130 -0.000001 -0.000004 -57.192300 -2.206480 -25.890100 -24.328900 0.000322 -0.000009 -2.813150 -9.931890 -15.899300 -22.291500 -0.000108 -0.000004 10.619200 4.858890 10.192400 -2.192480 -6.469440 -0.000000 -174.498000 -13.472500 -3.284690 39.081100 -0.000007 -0.000012 -0.404280 0.415261 44.233200 40.985400 -0.000006 -0.000013 0.065608 0.304179 -78.717200 11.754300 -0.000000 0.000003 -0.000355 -0.002991 -16.688400 -2.192510 6.469440 -0.000001 175.439000 12.228700 175.314000 -39.081100 -0.002282 -0.040193 0.026371 -0.023797 44.153700 -40.985400 0.000008 0.000006 6.888690 10.594900 -78.215700 -11.754300 -0.000006 -0.000006 -0.002839 -0.038767 -18.149700
0.000000 0.000000 0.000000 0.000000 0.000000 -0.000000 1.024370 88.735400 2.553330 88.870900 -8.257050 10.996100 15.735700 0.000005 -0.000001 80.878000 83.076400 -80.963200 8.984550 -0.406207 -0.000000 5.907790 -2.188200 -0.057357 16.377300 -0.000001 -0.000001 6.104940 1.048250 0.158198 6.456720 -0.000001 -0.000000 -0.462301 4.584660 -0.812339 12.994200 -0.242716 4.980390 -92.071300 5.866600 -70.513200 5.348090 -0.000007 -0.000001 -55.672000 42.079900 -18.592100 24.328600 0.000019 0.000005 9.491600 24.766300 -21.760600 22.291600 -0.000001 0.000005 8.299450 5.230580 1.955900 12.994500 -0.242716 -4.980390 88.129400 8.137020 -77.005700 -5.348130 -0.000001 -0.000004 -55.182600 -13.139400 -30.584300 -24.328900 0.000322 -0.000009 -3.221260 -13.444700 -13.605800 -22.291500 -0.000108 -0.000004 11.329600 4.582530 15.200700 -2.192480 -6.469440 -0.000000 -175.053000 -12.709900 -1.347830 39.081100 -0.000007 -0.000012 -0.331427 0.400525 39.607800 40.985400 -0.000006 -0.000013 0.072477 0.449687 -76.960300 11.754300 -0.000000 0.000003 -0.000300 -0.002603 -16.674500 -2.192510 6.469440 -0.000001 174.950000 13.228700 177.381000 -39.081100 -0.002282 -0.040193 0.020452 -0.020528 39.914200 -40.985400 0.000008 0.000006 6.264520 10.998500 -76.304200 -11.754300 -0.000006 -0.000006 -0.003346 -0.044459 -18.381300
0.000000 0.000000 0.000000 0.000000 0.000000 -0.000000 1.083760 89.760200 3.154100 89.041900 -6.647050 8.363050 15.735700 0.000005 -0.000001 75.820100 84.949000 -76.660400 8.984550 -0.406207 -0.000000 2.012730 -2.430850 -1.636610 16.377300 -0.000001 -0.000001 8.885750 0.419378 0.124421 6.456720 -0.000001 -0.000000 0.282631 3.640830 1.466210 12.994200 -0.242716 4.980390 -91.676800 4.553160 -69.758000 5.348090 -0.000007 -0.000001 -59.288300 39.125300 -16.636500 24.328600 0.000019 0.000005 9.106810 26.670500 -19.652200 22.291600 -0.000001 0.000005 6.127850 5.135810 4.282880 12.994500 -0.242716 -4.980390 88.570800 5.781800 -76.088000 -5.348130 -0.000001 -0.000004 -53.021500 -24.173300 -37.876500 -24.328900 0.000322 -0.000009 -5.047510 -19.999400 -14.476100 -22.291500 -0.000108 -0.000004 15.360600 4.616480 14.644900 -2.192480 -6.469440 -0.000000 -176.050000 -11.833100 -1.569480 39.081100 -0.000007 -0.000012 -0.264541 0.379854 34.854900 40.985400 -0.000006 -0.000013 0.234641 0.843434 -74.807000 11.754300 -0.000000 0.000003 -0.000287 -0.002506 -16.671100 -2.192510 6.469440 -0.000001 174.734000 15.592200 177.533000 -39.081100 -0.002282 -0.040193 0.014147 -0.015249 35.451100 -40.985400 0.000008 0.000006 5.830840 12.025800 -74.165200 -11.754300 -0.000006 -0.000006 -0.004084 -0.052307 -18.700900
0.000000 0.000000 0.000000 0.000000 0.000000 -0.000000 1.215850 90.313700 3.545620 89.070900 -5.780630 6.765090 15.735700 0.000005 -0.000001 72.556900 86.067000 -73.740900 8.984550 -0.406207 -0.000000 -0.283767 -2.274200 -2.372500 16.377300 -0.000001 -0.000001 9.605860 -0.509104 0.741437 6.456720 -0.000001 -0.000000 0.480644 2.721860 2.274180 12.994200 -0.242716 4.980390 -91.531600 4.157330 -69.755300 5.348090 -0.000007 -0.000001 -61.278500 37.152300 -14.676500 24.328600 0.000019 0.000005 7.465260 22.723500 -18.738400 22.291600 -0.000001 0.000005 5.955410 5.165100 3.579680 12.994500 -0.242716 -4.980390 89.322300 2.687590 -75.843000 -5.348130 -0.000001 -0.000004 -50.864300 -34.352000 -48.202200 -24.328900 0.000322 -0.000009 -7.351870 -23.251300 -18.095000 -22.291500 -0.000108 -0.000004 18.245400 4.876160 9.857050 -2.192480 -6.469440 -0.000000 -176.319000 -12.346500 -1.597880 39.081100 -0.000007 -0.000012 -0.226793 0.363091 31.990100 40.985400 -0.000006 -0.000013 0.629224 1.982970 -73.561100 11.754300 -0.000000 0.000003 -0.000250 -0.002237 -16.661400 -2.192510 6.469440 -0.000001 174.515000 17.428100 177.639000 -39.081100 -0.002282 -0.040193 0.006060 -0.004294 32.773400 -40.985400 0.000008 0.000006 5.323580 13.376200 -72.693100 -11.754300 -0.000006 -0.000006 -0.004765 -0.059176 -18.980700
0.000000 0.000000 0.000000 0.000000 0.000000 -0.000000 1.511730 90.412100 3.606500 89.439400 -5.878050 6.211450 15.735700 0.000005 -0.000001 74.540800 86.458800 -75.852900 8.984550 -0.406207 -0.000000 -0.958921 -1.787580 -2.638190 16.377300 -0.000001 -0.000001 8.604220 -0.959824 1.646520 6.456720 -0.000001 -0.000000 0.263067 2.158160 2.430670 12.994200 -0.242716 4.980390 -91.611100 4.399370 -69.863900 5.348090 -0.000007 -0.000001 -61.681600 36.110400 -13.401200 24.328600 0.000019 0.000005 6.212260 17.890900 -19.512100 22.291600 -0.000001 0.000005 5.923260 5.226280 2.051350 12.994500 -0.242716 -4.980390 90.378600 -1.546830 -76.241200 -5.348130 -0.000001 -0.000004 -50.650000 -44.434800 -60.149400 -24.328900 0.000322 -0.000009 -9.936820 -21.707800 -25.343200 -22.291500 -0.000108 -0.000004 18.882400 5.129380 4.435030 -2.192480 -6.469440 -0.000000 -176.872000 -13.135800 -1.764020 39.081100 -0.000007 -0.000012 -0.216405 0.356795 31.238200 40.985400 -0.000006 -0.000013 0.989926 2.522550 -73.259700 11.754300 -0.000000 0.000003 -0.000245 -0.002194 -16.659800 -2.192510 6.469440 -0.000001 174.012000 17.504700 177.161000 -39.081100 -0.002282 -0.040193 0.001922 0.002160 32.475000 -40.985400 0.000008 0.000006 4.815620 13.892300 -72.292100 -11.754300 -0.000006 -0.000006 -0.005318 -0.064514 -19.198200
